# xmcd CD database file
#
# Track frame offsets:
#	150
#	13883
#	34740
#	53499
#	65883
#	80142
#	99349
#	116384
#	131019
#	142202
#	161184
#	177169
#	193976
#	210260
#	227892
#	241549
#	254083
#	271492
#
# Disc length: 3872 seconds
#
# Revision: 2
# Processed by: cddbd v1.5.2PL0 Copyright (c) Steve Scherf et al.
# Submitted via: CDex 1.77
#
DISCID=0b0f1e12
DTITLE=Nat King Cole - Complete After Midnight Sessions
DYEAR=1900
DGENRE=Jazz
TTITLE0=Just You, Just Me
TTITLE1=Sweet Lorraine
TTITLE2=Sometimes I'm Happy
TTITLE3=Caravan
TTITLE4=It's Only A Paper Moon
TTITLE5=You're Looking At Me
TTITLE6=Lonely One
TTITLE7=Don't Let It Go To Your Head
TTITLE8=I Know That You Know
TTITLE9=Blame It On My Youth
TTITLE10=When I Grow Too Old To Dream
TTITLE11=Route 66
TTITLE12=What Is There To Say
TTITLE13=You Can Depend On Me
TTITLE14=I Was A Little Too Lonely
TTITLE15=Two Loves Have I
TTITLE16=Candy
TTITLE17=You're Looking At Me (Alternate Take)
EXTD=
EXTT0=
EXTT1=
EXTT2=
EXTT3=
EXTT4=
EXTT5=
EXTT6=
EXTT7=
EXTT8=
EXTT9=
EXTT10=
EXTT11=
EXTT12=
EXTT13=
EXTT14=
EXTT15=
EXTT16=
EXTT17=
PLAYORDER=
